<?xml version="1.0" encoding="iso-8859-1"?>
<!-- Generator: Adobe Illustrator 19.0.0, SVG Export Plug-In . SVG Version: 6.00 Build 0)  -->
<svg version="1.1" id="Layer_1" xmlns="http://www.w3.org/2000/svg" xmlns:xlink="http://www.w3.org/1999/xlink" x="0px" y="0px"
	 viewBox="0 0 512 512" style="enable-background:new 0 0 512 512;" xml:space="preserve">
<circle style="fill:#273B7A;" cx="256" cy="256" r="256"/>
<path style="fill:#121149;" d="M259.889,511.95c122.501-1.827,224.144-89.681,247.196-205.848L369.778,168.796l-95.154,159.268
	l28.179,28.179l-156.641,41.979L259.889,511.95z"/>
<polygon style="fill:#FFFFFF;" points="311.696,110.714 146.161,110.714 146.161,398.222 369.778,398.222 369.778,168.796 "/>
<polygon style="fill:#D0D1D3;" points="369.778,168.796 311.696,110.714 254.564,110.714 254.564,398.222 369.778,398.222 "/>
<polygon style="fill:#A6A8AA;" points="311.696,168.796 369.778,168.796 311.696,110.714 "/>
<rect x="170.942" y="125.631" style="fill:#38C6D9;" width="56.606" height="15.058"/>
<g>
	<rect x="170.942" y="170.667" style="fill:#A6A8AA;" width="113.495" height="4.003"/>
	<rect x="170.942" y="191.491" style="fill:#A6A8AA;" width="170.391" height="4.003"/>
	<rect x="170.942" y="212.333" style="fill:#A6A8AA;" width="170.391" height="4.003"/>
	<rect x="170.942" y="254" style="fill:#A6A8AA;" width="170.391" height="4.003"/>
	<rect x="170.942" y="295.667" style="fill:#A6A8AA;" width="170.391" height="4.003"/>
	<rect x="170.942" y="316.492" style="fill:#A6A8AA;" width="113.495" height="4.003"/>
	<rect x="170.942" y="274.825" style="fill:#A6A8AA;" width="170.391" height="4.003"/>
	<rect x="170.942" y="233.158" style="fill:#A6A8AA;" width="170.391" height="4.003"/>
</g>
<circle style="fill:#FF7F4F;" cx="199.111" cy="355.987" r="28.444"/>
<circle style="fill:#D35933;" cx="199.111" cy="355.987" r="17.239"/>
<g>
	<path style="fill:#808183;" d="M325.822,368.907c-1.108,0-2.276-0.064-3.51-0.2c-5.615-0.624-7.894-3.398-8.818-5.613
		c-0.167-0.4-0.3-0.807-0.403-1.215c-6.306,4.074-14.45,6.666-20.768,3.129c-2.55-1.429-3.998-3.767-4.268-6.777
		c-4.286,1.165-7.718,1.689-8.052,1.739c-0.469,0.079-0.909-0.252-0.977-0.726c-0.071-0.469,0.253-0.908,0.726-0.977
		c0.083-0.014,3.765-0.576,8.28-1.833c0.053-0.938,0.205-1.926,0.457-2.962c1.817-7.466,8.42-15.234,13.084-15.391
		c1.215-0.034,3.412,0.403,4.492,3.832c0.755,2.393,0.467,4.677-0.853,6.789c-2.755,4.406-9.597,7.296-15.465,9.045
		c0.121,2.217,0.99,4.391,3.418,5.753c5.93,3.325,13.99,0.271,19.656-3.529c-0.103-2.686,0.912-5.28,2.213-6.927
		c1.379-1.741,3.155-2.57,4.823-2.3c1.202,0.198,1.56,0.952,1.669,1.384c0.534,2.138-2.744,5.549-5.991,8.027
		c-0.293,0.224-0.593,0.446-0.898,0.665c0.086,0.546,0.233,1.088,0.448,1.607c1.069,2.563,3.634,4.141,7.42,4.561
		c13.097,1.453,18.192-5.977,18.403-6.294c0.26-0.395,0.8-0.505,1.191-0.245c0.397,0.26,0.509,0.793,0.248,1.191
		C342.135,361.968,337.442,368.907,325.822,368.907z M319.219,352.422c-0.952,0-1.967,0.603-2.834,1.698
		c-0.908,1.148-1.612,2.822-1.795,4.586c0.815-0.624,1.557-1.253,2.205-1.86c2.694-2.524,3.181-4.039,3.053-4.306l0,0
		c-0.002,0-0.064-0.053-0.272-0.09C319.459,352.432,319.34,352.422,319.219,352.422z M301.777,339.802
		c-0.057,0-0.109,0.002-0.15,0.003c-3.865,0.129-9.866,7.497-11.466,14.076c-0.157,0.645-0.286,1.331-0.36,2.038
		c5.454-1.672,11.561-4.306,13.948-8.128c1.055-1.689,1.276-3.441,0.672-5.356C303.645,339.982,302.361,339.802,301.777,339.802z"/>
	<path style="fill:#808183;" d="M269.84,385.212c-0.329,0-0.645-0.19-0.788-0.512c-0.193-0.434,0.003-0.945,0.438-1.138
		c27.477-12.212,74.374-9.304,74.838-9.273c0.476,0.033,0.834,0.441,0.805,0.915s-0.443,0.855-0.915,0.805
		c-0.471-0.033-46.944-2.91-74.026,9.128C270.076,385.188,269.958,385.212,269.84,385.212z"/>
</g>
<g>
</g>
<g>
</g>
<g>
</g>
<g>
</g>
<g>
</g>
<g>
</g>
<g>
</g>
<g>
</g>
<g>
</g>
<g>
</g>
<g>
</g>
<g>
</g>
<g>
</g>
<g>
</g>
<g>
</g>
</svg>
